<svg width="39" height="31" viewBox="0 0 39 31" fill="none" xmlns="http://www.w3.org/2000/svg">
<path d="M38.7266 22.4453C38.7266 23.5391 38.5156 24.5703 38.0938 25.5391C37.6875 26.4922 37.125 27.3281 36.4062 28.0469C35.6875 28.7656 34.8438 29.3359 33.875 29.7578C32.9219 30.1641 31.8984 30.3672 30.8047 30.3672C29.6953 30.3672 28.6562 30.1641 27.6875 29.7578C26.7344 29.3359 25.8906 28.7656 25.1562 28.0469C24.4375 27.3281 23.8672 26.4922 23.4453 25.5391C23.0391 24.5703 22.8359 23.5391 22.8359 22.4453C22.8359 21.3516 23.0391 20.3281 23.4453 19.375C23.8672 18.4062 24.4375 17.5625 25.1562 16.8438C25.8906 16.1094 26.7344 15.5312 27.6875 15.1094C28.6562 14.6875 29.6953 14.4766 30.8047 14.4766C31.8984 14.4766 32.9219 14.6875 33.875 15.1094C34.8438 15.5312 35.6875 16.1094 36.4062 16.8438C37.125 17.5625 37.6875 18.4062 38.0938 19.375C38.5156 20.3281 38.7266 21.3516 38.7266 22.4453ZM31.0391 0.460938L13.7656 30.7188H8.14062L25.4375 0.460938H31.0391ZM16.7422 8.6875C16.7422 9.79688 16.5312 10.8359 16.1094 11.8047C15.7031 12.7578 15.1328 13.6016 14.3984 14.3359C13.6797 15.0547 12.8359 15.625 11.8672 16.0469C10.8984 16.4531 9.86719 16.6562 8.77344 16.6562C7.67969 16.6562 6.64844 16.4531 5.67969 16.0469C4.72656 15.625 3.89062 15.0547 3.17188 14.3359C2.45312 13.6016 1.88281 12.7578 1.46094 11.8047C1.05469 10.8359 0.851562 9.79688 0.851562 8.6875C0.851562 7.59375 1.05469 6.57031 1.46094 5.61719C1.88281 4.64844 2.45312 3.80469 3.17188 3.08594C3.89062 2.36719 4.72656 1.80469 5.67969 1.39844C6.64844 0.976562 7.67969 0.765625 8.77344 0.765625C9.86719 0.765625 10.8984 0.976562 11.8672 1.39844C12.8359 1.80469 13.6797 2.36719 14.3984 3.08594C15.1328 3.80469 15.7031 4.64844 16.1094 5.61719C16.5312 6.57031 16.7422 7.59375 16.7422 8.6875ZM33.8281 22.4453C33.8281 22.0234 33.75 21.6328 33.5938 21.2734C33.4375 20.8984 33.2188 20.5703 32.9375 20.2891C32.6719 20.0078 32.3516 19.7891 31.9766 19.6328C31.6172 19.4609 31.2266 19.375 30.8047 19.375C30.3828 19.375 29.9844 19.4609 29.6094 19.6328C29.2344 19.7891 28.9062 20.0078 28.625 20.2891C28.3594 20.5703 28.1406 20.8984 27.9688 21.2734C27.8125 21.6328 27.7344 22.0234 27.7344 22.4453C27.7344 22.8672 27.8125 23.2656 27.9688 23.6406C28.1406 24 28.3594 24.3203 28.625 24.6016C28.9062 24.8672 29.2344 25.0781 29.6094 25.2344C29.9844 25.3906 30.3828 25.4688 30.8047 25.4688C31.2266 25.4688 31.6172 25.3906 31.9766 25.2344C32.3516 25.0781 32.6719 24.8672 32.9375 24.6016C33.2188 24.3203 33.4375 24 33.5938 23.6406C33.75 23.2656 33.8281 22.8672 33.8281 22.4453ZM11.8438 8.6875C11.8438 8.26562 11.7656 7.875 11.6094 7.51562C11.4531 7.14062 11.2344 6.82031 10.9531 6.55469C10.6875 6.27344 10.3672 6.05469 9.99219 5.89844C9.61719 5.74219 9.21094 5.66406 8.77344 5.66406C8.35156 5.66406 7.95312 5.74219 7.57812 5.89844C7.21875 6.05469 6.89844 6.27344 6.61719 6.55469C6.35156 6.82031 6.14062 7.14062 5.98438 7.51562C5.82812 7.875 5.75 8.26562 5.75 8.6875C5.75 9.10938 5.82812 9.50781 5.98438 9.88281C6.14062 10.2578 6.35156 10.5859 6.61719 10.8672C6.89844 11.1484 7.21875 11.3672 7.57812 11.5234C7.95312 11.6797 8.35156 11.7578 8.77344 11.7578C9.21094 11.7578 9.61719 11.6797 9.99219 11.5234C10.3672 11.3672 10.6875 11.1484 10.9531 10.8672C11.2344 10.5859 11.4531 10.2578 11.6094 9.88281C11.7656 9.50781 11.8438 9.10938 11.8438 8.6875Z" fill="black"/>
</svg>
